<mxfile host="drawio-plugin" modified="2021-09-29T07:29:29.682Z" agent="5.0 (Windows NT 6.2; Win64; x64) AppleWebKit/537.36 (KHTML, like Gecko) Chrome/84.0.4147.105 Safari/537.36" etag="ra7XVhETqcGXd934qJtb" version="14.7.4" type="embed"><diagram id="6Tn-rAn7TZD-5QXwsMfs" name="第 1 页"><mxGraphModel dx="1992" dy="1512" grid="0" gridSize="10" guides="1" tooltips="1" connect="1" arrows="1" fold="1" page="0" pageScale="1" pageWidth="827" pageHeight="1169" math="0" shadow="0"><root><mxCell id="0"/><mxCell id="1" parent="0"/><mxCell id="u8NcXWyuTXtI6IcerVGP-23" value="" style="rounded=0;whiteSpace=wrap;html=1;" parent="1" vertex="1"><mxGeometry x="730" y="-117" width="151" height="175" as="geometry"/></mxCell><mxCell id="u8NcXWyuTXtI6IcerVGP-1" value="&lt;font style=&quot;font-size: 24px&quot;&gt;base&lt;/font&gt;" style="rounded=1;whiteSpace=wrap;html=1;" parent="1" vertex="1"><mxGeometry x="308" y="31" width="120" height="60" as="geometry"/></mxCell><mxCell id="u8NcXWyuTXtI6IcerVGP-11" style="edgeStyle=none;rounded=0;orthogonalLoop=1;jettySize=auto;html=1;" parent="1" source="u8NcXWyuTXtI6IcerVGP-2" target="u8NcXWyuTXtI6IcerVGP-1" edge="1"><mxGeometry relative="1" as="geometry"/></mxCell><mxCell id="u8NcXWyuTXtI6IcerVGP-2" value="&lt;font style=&quot;font-size: 24px&quot;&gt;data&lt;/font&gt;" style="rounded=1;whiteSpace=wrap;html=1;" parent="1" vertex="1"><mxGeometry x="746" y="-98" width="120" height="60" as="geometry"/></mxCell><mxCell id="u8NcXWyuTXtI6IcerVGP-12" style="edgeStyle=none;rounded=0;orthogonalLoop=1;jettySize=auto;html=1;" parent="1" source="u8NcXWyuTXtI6IcerVGP-3" target="u8NcXWyuTXtI6IcerVGP-1" edge="1"><mxGeometry relative="1" as="geometry"/></mxCell><mxCell id="3" style="edgeStyle=none;rounded=0;orthogonalLoop=1;jettySize=auto;html=1;" edge="1" parent="1" source="u8NcXWyuTXtI6IcerVGP-3" target="u8NcXWyuTXtI6IcerVGP-6"><mxGeometry relative="1" as="geometry"/></mxCell><mxCell id="u8NcXWyuTXtI6IcerVGP-3" value="&lt;font style=&quot;font-size: 24px&quot;&gt;bus&lt;br&gt;&lt;/font&gt;" style="rounded=1;whiteSpace=wrap;html=1;" parent="1" vertex="1"><mxGeometry x="535" y="286" width="120" height="60" as="geometry"/></mxCell><mxCell id="u8NcXWyuTXtI6IcerVGP-13" style="edgeStyle=none;rounded=0;orthogonalLoop=1;jettySize=auto;html=1;" parent="1" source="u8NcXWyuTXtI6IcerVGP-4" target="u8NcXWyuTXtI6IcerVGP-1" edge="1"><mxGeometry relative="1" as="geometry"/></mxCell><mxCell id="u8NcXWyuTXtI6IcerVGP-14" style="edgeStyle=none;rounded=0;orthogonalLoop=1;jettySize=auto;html=1;" parent="1" source="u8NcXWyuTXtI6IcerVGP-4" target="u8NcXWyuTXtI6IcerVGP-2" edge="1"><mxGeometry relative="1" as="geometry"/></mxCell><mxCell id="u8NcXWyuTXtI6IcerVGP-4" value="&lt;font style=&quot;font-size: 24px&quot;&gt;hot-spot&lt;br&gt;&lt;/font&gt;" style="rounded=1;whiteSpace=wrap;html=1;" parent="1" vertex="1"><mxGeometry x="-128" y="-67" width="120" height="60" as="geometry"/></mxCell><mxCell id="u8NcXWyuTXtI6IcerVGP-15" style="edgeStyle=none;rounded=0;orthogonalLoop=1;jettySize=auto;html=1;" parent="1" source="u8NcXWyuTXtI6IcerVGP-5" target="u8NcXWyuTXtI6IcerVGP-1" edge="1"><mxGeometry relative="1" as="geometry"/></mxCell><mxCell id="u8NcXWyuTXtI6IcerVGP-5" value="&lt;font style=&quot;font-size: 24px&quot;&gt;log&lt;br&gt;&lt;/font&gt;" style="rounded=1;whiteSpace=wrap;html=1;" parent="1" vertex="1"><mxGeometry x="535" y="61" width="120" height="60" as="geometry"/></mxCell><mxCell id="u8NcXWyuTXtI6IcerVGP-16" style="edgeStyle=none;rounded=0;orthogonalLoop=1;jettySize=auto;html=1;" parent="1" source="u8NcXWyuTXtI6IcerVGP-6" target="u8NcXWyuTXtI6IcerVGP-1" edge="1"><mxGeometry relative="1" as="geometry"/></mxCell><mxCell id="u8NcXWyuTXtI6IcerVGP-17" style="edgeStyle=none;rounded=0;orthogonalLoop=1;jettySize=auto;html=1;" parent="1" source="u8NcXWyuTXtI6IcerVGP-6" target="u8NcXWyuTXtI6IcerVGP-5" edge="1"><mxGeometry relative="1" as="geometry"/></mxCell><mxCell id="u8NcXWyuTXtI6IcerVGP-6" value="&lt;font style=&quot;font-size: 24px&quot;&gt;mq&lt;br&gt;&lt;/font&gt;" style="rounded=1;whiteSpace=wrap;html=1;" parent="1" vertex="1"><mxGeometry x="535" y="167" width="120" height="60" as="geometry"/></mxCell><mxCell id="u8NcXWyuTXtI6IcerVGP-19" style="edgeStyle=none;rounded=0;orthogonalLoop=1;jettySize=auto;html=1;" parent="1" source="u8NcXWyuTXtI6IcerVGP-7" target="u8NcXWyuTXtI6IcerVGP-1" edge="1"><mxGeometry relative="1" as="geometry"/></mxCell><mxCell id="u8NcXWyuTXtI6IcerVGP-21" style="edgeStyle=none;rounded=0;orthogonalLoop=1;jettySize=auto;html=1;" parent="1" source="u8NcXWyuTXtI6IcerVGP-7" target="u8NcXWyuTXtI6IcerVGP-3" edge="1"><mxGeometry relative="1" as="geometry"/></mxCell><mxCell id="u8NcXWyuTXtI6IcerVGP-22" style="edgeStyle=none;rounded=0;orthogonalLoop=1;jettySize=auto;html=1;" parent="1" source="u8NcXWyuTXtI6IcerVGP-7" target="u8NcXWyuTXtI6IcerVGP-4" edge="1"><mxGeometry relative="1" as="geometry"/></mxCell><mxCell id="u8NcXWyuTXtI6IcerVGP-7" value="&lt;font style=&quot;font-size: 24px&quot;&gt;service&lt;br&gt;&lt;/font&gt;" style="rounded=1;whiteSpace=wrap;html=1;" parent="1" vertex="1"><mxGeometry x="305" y="319" width="120" height="60" as="geometry"/></mxCell><mxCell id="u8NcXWyuTXtI6IcerVGP-18" style="edgeStyle=none;rounded=0;orthogonalLoop=1;jettySize=auto;html=1;" parent="1" source="u8NcXWyuTXtI6IcerVGP-8" target="u8NcXWyuTXtI6IcerVGP-1" edge="1"><mxGeometry relative="1" as="geometry"/></mxCell><mxCell id="u8NcXWyuTXtI6IcerVGP-8" value="&lt;font style=&quot;font-size: 24px&quot;&gt;util&lt;br&gt;&lt;/font&gt;" style="rounded=1;whiteSpace=wrap;html=1;" parent="1" vertex="1"><mxGeometry x="746" y="-19" width="120" height="60" as="geometry"/></mxCell></root></mxGraphModel></diagram></mxfile>